<mxfile host="Electron" modified="2024-07-02T17:07:22.976Z" agent="Mozilla/5.0 (Windows NT 10.0; Win64; x64) AppleWebKit/537.36 (KHTML, like Gecko) draw.io/24.6.4 Chrome/124.0.6367.207 Electron/30.0.6 Safari/537.36" etag="96kjr2V5ay6UMcB0muVl" version="24.6.4" type="device">
  <diagram name="Page-1" id="-OZIe05YQaMjz7e-lakk">
    <mxGraphModel dx="1463" dy="376" grid="1" gridSize="10" guides="1" tooltips="1" connect="1" arrows="1" fold="1" page="1" pageScale="1" pageWidth="827" pageHeight="1169" math="0" shadow="0">
      <root>
        <mxCell id="0" />
        <mxCell id="1" parent="0" />
        <mxCell id="jqsIoBwaRQyOEGOpOjdC-4" style="edgeStyle=orthogonalEdgeStyle;rounded=0;orthogonalLoop=1;jettySize=auto;html=1;entryX=0;entryY=0.5;entryDx=0;entryDy=0;" parent="1" source="jqsIoBwaRQyOEGOpOjdC-1" target="jqsIoBwaRQyOEGOpOjdC-2" edge="1">
          <mxGeometry relative="1" as="geometry" />
        </mxCell>
        <mxCell id="jqsIoBwaRQyOEGOpOjdC-1" value="" style="shape=actor;whiteSpace=wrap;html=1;" parent="1" vertex="1">
          <mxGeometry x="-540" y="370" width="40" height="60" as="geometry" />
        </mxCell>
        <mxCell id="jqsIoBwaRQyOEGOpOjdC-7" style="edgeStyle=orthogonalEdgeStyle;rounded=0;orthogonalLoop=1;jettySize=auto;html=1;" parent="1" source="jqsIoBwaRQyOEGOpOjdC-2" target="jqsIoBwaRQyOEGOpOjdC-6" edge="1">
          <mxGeometry relative="1" as="geometry" />
        </mxCell>
        <mxCell id="jqsIoBwaRQyOEGOpOjdC-2" value="choix catégories recherche + saisie de la recherche" style="rounded=0;whiteSpace=wrap;html=1;" parent="1" vertex="1">
          <mxGeometry x="-350" y="400" width="120" height="60" as="geometry" />
        </mxCell>
        <mxCell id="jqsIoBwaRQyOEGOpOjdC-54" style="edgeStyle=orthogonalEdgeStyle;rounded=0;orthogonalLoop=1;jettySize=auto;html=1;entryX=1;entryY=0.5;entryDx=0;entryDy=0;" parent="1" source="jqsIoBwaRQyOEGOpOjdC-3" target="jqsIoBwaRQyOEGOpOjdC-53" edge="1">
          <mxGeometry relative="1" as="geometry">
            <Array as="points">
              <mxPoint x="200" y="220" />
            </Array>
          </mxGeometry>
        </mxCell>
        <mxCell id="jqsIoBwaRQyOEGOpOjdC-3" value="Backend" style="rounded=0;whiteSpace=wrap;html=1;" parent="1" vertex="1">
          <mxGeometry x="140" y="400" width="120" height="60" as="geometry" />
        </mxCell>
        <mxCell id="jqsIoBwaRQyOEGOpOjdC-5" value="contrôle caractères saisies par REGEX" style="text;html=1;align=center;verticalAlign=middle;whiteSpace=wrap;rounded=0;" parent="1" vertex="1">
          <mxGeometry x="-485" y="366" width="120" height="30" as="geometry" />
        </mxCell>
        <mxCell id="jqsIoBwaRQyOEGOpOjdC-8" style="edgeStyle=orthogonalEdgeStyle;rounded=0;orthogonalLoop=1;jettySize=auto;html=1;" parent="1" source="jqsIoBwaRQyOEGOpOjdC-6" target="jqsIoBwaRQyOEGOpOjdC-3" edge="1">
          <mxGeometry relative="1" as="geometry" />
        </mxCell>
        <mxCell id="jqsIoBwaRQyOEGOpOjdC-6" value="contrôle champs non vide" style="rounded=0;whiteSpace=wrap;html=1;" parent="1" vertex="1">
          <mxGeometry x="-120" y="400" width="120" height="60" as="geometry" />
        </mxCell>
        <mxCell id="jqsIoBwaRQyOEGOpOjdC-9" value="&lt;font color=&quot;#009900&quot;&gt;OK&lt;/font&gt;" style="text;html=1;align=center;verticalAlign=middle;whiteSpace=wrap;rounded=0;" parent="1" vertex="1">
          <mxGeometry x="-10" y="400" width="60" height="30" as="geometry" />
        </mxCell>
        <mxCell id="jqsIoBwaRQyOEGOpOjdC-11" value="Info saisie non conforme" style="rounded=0;whiteSpace=wrap;html=1;" parent="1" vertex="1">
          <mxGeometry x="-350" y="270" width="120" height="60" as="geometry" />
        </mxCell>
        <mxCell id="jqsIoBwaRQyOEGOpOjdC-13" value="" style="edgeStyle=elbowEdgeStyle;elbow=vertical;endArrow=classic;html=1;curved=0;rounded=0;endSize=8;startSize=8;exitX=0.5;exitY=0;exitDx=0;exitDy=0;" parent="1" source="jqsIoBwaRQyOEGOpOjdC-6" target="jqsIoBwaRQyOEGOpOjdC-11" edge="1">
          <mxGeometry width="50" height="50" relative="1" as="geometry">
            <mxPoint x="-110" y="330" as="sourcePoint" />
            <mxPoint x="-60" y="280" as="targetPoint" />
          </mxGeometry>
        </mxCell>
        <mxCell id="jqsIoBwaRQyOEGOpOjdC-14" value="&lt;font color=&quot;#ff0000&quot;&gt;NOK&lt;/font&gt;" style="text;html=1;align=center;verticalAlign=middle;whiteSpace=wrap;rounded=0;" parent="1" vertex="1">
          <mxGeometry x="-120" y="336" width="60" height="30" as="geometry" />
        </mxCell>
        <mxCell id="jqsIoBwaRQyOEGOpOjdC-15" value="Récupération tableau objets* selon catégories des lieux triés par pertinence (via indice dans une propriété) (21 éléments)" style="rounded=0;whiteSpace=wrap;html=1;fillColor=#e3c800;fontColor=#000000;strokeColor=#B09500;verticalAlign=middle;spacingTop=30;" parent="1" vertex="1">
          <mxGeometry x="-120" y="500" width="120" height="270" as="geometry" />
        </mxCell>
        <mxCell id="jqsIoBwaRQyOEGOpOjdC-17" value="" style="edgeStyle=elbowEdgeStyle;elbow=vertical;endArrow=classic;html=1;curved=0;rounded=0;endSize=8;startSize=8;" parent="1" source="jqsIoBwaRQyOEGOpOjdC-3" target="jqsIoBwaRQyOEGOpOjdC-15" edge="1">
          <mxGeometry width="50" height="50" relative="1" as="geometry">
            <mxPoint x="-140" y="530" as="sourcePoint" />
            <mxPoint x="-90" y="480" as="targetPoint" />
          </mxGeometry>
        </mxCell>
        <mxCell id="jqsIoBwaRQyOEGOpOjdC-19" value="" style="rounded=0;whiteSpace=wrap;html=1;fillColor=none;" parent="1" vertex="1">
          <mxGeometry x="-370" y="500" width="130" height="260" as="geometry" />
        </mxCell>
        <mxCell id="jqsIoBwaRQyOEGOpOjdC-21" value="" style="endArrow=none;html=1;rounded=0;exitX=0.866;exitY=0.977;exitDx=0;exitDy=0;fillColor=#ffe6cc;strokeColor=#d79b00;exitPerimeter=0;" parent="1" edge="1">
          <mxGeometry width="50" height="50" relative="1" as="geometry">
            <mxPoint x="-530" y="430" as="sourcePoint" />
            <mxPoint x="-530" y="690" as="targetPoint" />
          </mxGeometry>
        </mxCell>
        <mxCell id="jqsIoBwaRQyOEGOpOjdC-22" value="" style="endArrow=classic;html=1;rounded=0;entryX=0;entryY=0.75;entryDx=0;entryDy=0;fillColor=#ffe6cc;strokeColor=#d79b00;" parent="1" target="tws-aRyEBau8SEogngRB-4" edge="1">
          <mxGeometry width="50" height="50" relative="1" as="geometry">
            <mxPoint x="-530" y="690" as="sourcePoint" />
            <mxPoint x="-200" y="540" as="targetPoint" />
          </mxGeometry>
        </mxCell>
        <mxCell id="jqsIoBwaRQyOEGOpOjdC-23" value="clique changement de page" style="text;html=1;align=center;verticalAlign=middle;whiteSpace=wrap;rounded=0;fillColor=#ffe6cc;strokeColor=#d79b00;fontColor=#2B2B2B;" parent="1" vertex="1">
          <mxGeometry x="-505" y="660" width="110" height="30" as="geometry" />
        </mxCell>
        <mxCell id="jqsIoBwaRQyOEGOpOjdC-26" style="edgeStyle=orthogonalEdgeStyle;rounded=0;orthogonalLoop=1;jettySize=auto;html=1;entryX=1.005;entryY=0.037;entryDx=0;entryDy=0;entryPerimeter=0;exitX=0;exitY=0.036;exitDx=0;exitDy=0;exitPerimeter=0;" parent="1" edge="1">
          <mxGeometry relative="1" as="geometry">
            <mxPoint x="-120" y="626.94" as="sourcePoint" />
            <mxPoint x="-239.3499999999999" y="626.84" as="targetPoint" />
          </mxGeometry>
        </mxCell>
        <mxCell id="jqsIoBwaRQyOEGOpOjdC-27" value="" style="endArrow=classic;html=1;rounded=0;exitX=1.02;exitY=0.728;exitDx=0;exitDy=0;fillColor=#ffe6cc;strokeColor=#d79b00;exitPerimeter=0;" parent="1" edge="1">
          <mxGeometry width="50" height="50" relative="1" as="geometry">
            <mxPoint x="-237.39999999999986" y="680.28" as="sourcePoint" />
            <mxPoint x="-123" y="681" as="targetPoint" />
          </mxGeometry>
        </mxCell>
        <mxCell id="jqsIoBwaRQyOEGOpOjdC-28" value="demande 7 résultats suivants ou précédents" style="text;html=1;align=center;verticalAlign=middle;whiteSpace=wrap;rounded=0;fillColor=#ffe6cc;strokeColor=#d79b00;fontColor=#000000;" parent="1" vertex="1">
          <mxGeometry x="-235" y="681" width="100" height="50" as="geometry" />
        </mxCell>
        <mxCell id="jqsIoBwaRQyOEGOpOjdC-32" value="" style="endArrow=none;html=1;rounded=0;entryX=0.75;entryY=1;entryDx=0;entryDy=0;fillColor=#dae8fc;strokeColor=#6c8ebf;" parent="1" edge="1" target="jqsIoBwaRQyOEGOpOjdC-1">
          <mxGeometry width="50" height="50" relative="1" as="geometry">
            <mxPoint x="-510" y="570" as="sourcePoint" />
            <mxPoint x="-499.92" y="459.69999999999993" as="targetPoint" />
          </mxGeometry>
        </mxCell>
        <mxCell id="jqsIoBwaRQyOEGOpOjdC-33" value="" style="endArrow=classic;html=1;rounded=0;fillColor=#dae8fc;strokeColor=#6c8ebf;entryX=0;entryY=0.25;entryDx=0;entryDy=0;" parent="1" edge="1" target="tws-aRyEBau8SEogngRB-2">
          <mxGeometry width="50" height="50" relative="1" as="geometry">
            <mxPoint x="-510" y="570" as="sourcePoint" />
            <mxPoint x="-350" y="580" as="targetPoint" />
          </mxGeometry>
        </mxCell>
        <mxCell id="jqsIoBwaRQyOEGOpOjdC-34" value="application de filtres" style="text;html=1;align=center;verticalAlign=middle;whiteSpace=wrap;rounded=0;fillColor=#dae8fc;strokeColor=#6c8ebf;fontColor=#000000;" parent="1" vertex="1">
          <mxGeometry x="-497" y="540" width="110" height="30" as="geometry" />
        </mxCell>
        <mxCell id="jqsIoBwaRQyOEGOpOjdC-35" value="" style="endArrow=classic;html=1;rounded=0;exitX=0.996;exitY=0.644;exitDx=0;exitDy=0;exitPerimeter=0;entryX=-0.032;entryY=0.39;entryDx=0;entryDy=0;entryPerimeter=0;fillColor=#dae8fc;strokeColor=#6c8ebf;" parent="1" edge="1">
          <mxGeometry width="50" height="50" relative="1" as="geometry">
            <mxPoint x="-240.51999999999998" y="580" as="sourcePoint" />
            <mxPoint x="-119.99999999999991" y="580.06" as="targetPoint" />
          </mxGeometry>
        </mxCell>
        <mxCell id="jqsIoBwaRQyOEGOpOjdC-36" value="demande renvoi résultat correspondant filtre" style="text;html=1;align=center;verticalAlign=middle;whiteSpace=wrap;rounded=0;fillColor=#dae8fc;strokeColor=#6c8ebf;fontColor=#000000;" parent="1" vertex="1">
          <mxGeometry x="-232" y="515" width="100" height="65" as="geometry" />
        </mxCell>
        <mxCell id="jqsIoBwaRQyOEGOpOjdC-38" value="" style="endArrow=none;html=1;rounded=0;entryX=0.25;entryY=1;entryDx=0;entryDy=0;fillColor=#f8cecc;strokeColor=#b85450;" parent="1" edge="1">
          <mxGeometry width="50" height="50" relative="1" as="geometry">
            <mxPoint x="-520" y="590" as="sourcePoint" />
            <mxPoint x="-520" y="430" as="targetPoint" />
            <Array as="points">
              <mxPoint x="-520" y="520" />
            </Array>
          </mxGeometry>
        </mxCell>
        <mxCell id="jqsIoBwaRQyOEGOpOjdC-39" value="" style="endArrow=classic;html=1;rounded=0;entryX=0;entryY=0.75;entryDx=0;entryDy=0;fillColor=#f8cecc;strokeColor=#b85450;" parent="1" target="tws-aRyEBau8SEogngRB-2" edge="1">
          <mxGeometry width="50" height="50" relative="1" as="geometry">
            <mxPoint x="-520" y="590" as="sourcePoint" />
            <mxPoint x="-370.26" y="590.34" as="targetPoint" />
          </mxGeometry>
        </mxCell>
        <mxCell id="jqsIoBwaRQyOEGOpOjdC-40" value="changement de catégories" style="text;html=1;align=center;verticalAlign=middle;whiteSpace=wrap;rounded=0;fillColor=#f8cecc;strokeColor=#b85450;fontColor=#000000;" parent="1" vertex="1">
          <mxGeometry x="-505" y="590" width="110" height="30" as="geometry" />
        </mxCell>
        <mxCell id="jqsIoBwaRQyOEGOpOjdC-43" style="edgeStyle=orthogonalEdgeStyle;rounded=0;orthogonalLoop=1;jettySize=auto;html=1;exitX=1;exitY=0.25;exitDx=0;exitDy=0;fillColor=#f8cecc;strokeColor=#b85450;" parent="1" source="jqsIoBwaRQyOEGOpOjdC-41" target="jqsIoBwaRQyOEGOpOjdC-15" edge="1">
          <mxGeometry relative="1" as="geometry" />
        </mxCell>
        <mxCell id="jqsIoBwaRQyOEGOpOjdC-41" value="catégorie tous recherchés précédement sélectionné?" style="rounded=0;whiteSpace=wrap;html=1;" parent="1" vertex="1">
          <mxGeometry x="-365" y="850" width="120" height="60" as="geometry" />
        </mxCell>
        <mxCell id="jqsIoBwaRQyOEGOpOjdC-42" value="" style="endArrow=classic;html=1;rounded=0;exitX=0.5;exitY=1;exitDx=0;exitDy=0;entryX=0.5;entryY=0;entryDx=0;entryDy=0;fillColor=#f8cecc;strokeColor=#b85450;" parent="1" source="jqsIoBwaRQyOEGOpOjdC-19" target="jqsIoBwaRQyOEGOpOjdC-41" edge="1">
          <mxGeometry width="50" height="50" relative="1" as="geometry">
            <mxPoint x="-300" y="790" as="sourcePoint" />
            <mxPoint x="-250" y="740" as="targetPoint" />
          </mxGeometry>
        </mxCell>
        <mxCell id="jqsIoBwaRQyOEGOpOjdC-44" value="&lt;font color=&quot;#009900&quot;&gt;OK&lt;/font&gt;" style="text;html=1;align=center;verticalAlign=middle;whiteSpace=wrap;rounded=0;" parent="1" vertex="1">
          <mxGeometry x="-225" y="830" width="60" height="30" as="geometry" />
        </mxCell>
        <mxCell id="jqsIoBwaRQyOEGOpOjdC-45" value="" style="endArrow=classic;html=1;rounded=0;exitX=-0.024;exitY=0.789;exitDx=0;exitDy=0;exitPerimeter=0;entryX=1.005;entryY=0.819;entryDx=0;entryDy=0;entryPerimeter=0;fillColor=#60a917;strokeColor=#2D7600;" parent="1" edge="1">
          <mxGeometry width="50" height="50" relative="1" as="geometry">
            <mxPoint x="-119.99999999999989" y="634.7499999999999" as="sourcePoint" />
            <mxPoint x="-236.47000000000014" y="634.66" as="targetPoint" />
          </mxGeometry>
        </mxCell>
        <mxCell id="jqsIoBwaRQyOEGOpOjdC-46" value="envoie résultat de la catégorie" style="text;html=1;align=center;verticalAlign=middle;whiteSpace=wrap;rounded=0;fillColor=#f8cecc;strokeColor=#b85450;fontColor=#000000;" parent="1" vertex="1">
          <mxGeometry x="-590" y="730" width="100" height="40" as="geometry" />
        </mxCell>
        <mxCell id="jqsIoBwaRQyOEGOpOjdC-47" style="edgeStyle=orthogonalEdgeStyle;rounded=0;orthogonalLoop=1;jettySize=auto;html=1;entryX=0.934;entryY=1.02;entryDx=0;entryDy=0;entryPerimeter=0;fillColor=#f8cecc;strokeColor=#b85450;" parent="1" source="jqsIoBwaRQyOEGOpOjdC-41" target="jqsIoBwaRQyOEGOpOjdC-3" edge="1">
          <mxGeometry relative="1" as="geometry" />
        </mxCell>
        <mxCell id="jqsIoBwaRQyOEGOpOjdC-48" value="&lt;font color=&quot;#ff0000&quot;&gt;NOK&lt;/font&gt;" style="text;html=1;align=center;verticalAlign=middle;whiteSpace=wrap;rounded=0;" parent="1" vertex="1">
          <mxGeometry x="-225" y="880" width="60" height="30" as="geometry" />
        </mxCell>
        <mxCell id="jqsIoBwaRQyOEGOpOjdC-49" value="recherche selon la nouvelle catégorie" style="text;html=1;align=center;verticalAlign=middle;whiteSpace=wrap;rounded=0;fillColor=#f8cecc;strokeColor=#b85450;fontColor=#000000;" parent="1" vertex="1">
          <mxGeometry x="-10" y="850" width="170" height="30" as="geometry" />
        </mxCell>
        <mxCell id="jqsIoBwaRQyOEGOpOjdC-50" style="edgeStyle=orthogonalEdgeStyle;rounded=0;orthogonalLoop=1;jettySize=auto;html=1;entryX=1;entryY=0.556;entryDx=0;entryDy=0;entryPerimeter=0;fillColor=#f8cecc;strokeColor=#b85450;" parent="1" source="jqsIoBwaRQyOEGOpOjdC-3" target="jqsIoBwaRQyOEGOpOjdC-15" edge="1">
          <mxGeometry relative="1" as="geometry">
            <Array as="points">
              <mxPoint x="230" y="650" />
            </Array>
          </mxGeometry>
        </mxCell>
        <mxCell id="jqsIoBwaRQyOEGOpOjdC-52" value="&lt;font color=&quot;#009900&quot;&gt;OK&lt;/font&gt;" style="text;html=1;align=center;verticalAlign=middle;whiteSpace=wrap;rounded=0;" parent="1" vertex="1">
          <mxGeometry x="130" y="480" width="60" height="30" as="geometry" />
        </mxCell>
        <mxCell id="jqsIoBwaRQyOEGOpOjdC-53" value="info aucun résultat trouvé" style="rounded=0;whiteSpace=wrap;html=1;" parent="1" vertex="1">
          <mxGeometry x="-350" y="190" width="120" height="60" as="geometry" />
        </mxCell>
        <mxCell id="jqsIoBwaRQyOEGOpOjdC-55" value="&lt;font color=&quot;#ff0000&quot;&gt;NOK&lt;/font&gt;" style="text;html=1;align=center;verticalAlign=middle;whiteSpace=wrap;rounded=0;" parent="1" vertex="1">
          <mxGeometry x="150" y="370" width="60" height="30" as="geometry" />
        </mxCell>
        <mxCell id="jqsIoBwaRQyOEGOpOjdC-58" value="&lt;b&gt;&lt;font style=&quot;font-size: 20px;&quot;&gt;Catégories :&lt;/font&gt;&lt;/b&gt;&lt;div&gt;&lt;b&gt;&lt;br&gt;&lt;/b&gt;&lt;div&gt;- Tout Rechercher&lt;/div&gt;&lt;div&gt;- Hôtels&lt;/div&gt;&lt;div&gt;- Restaurants&lt;/div&gt;&lt;div&gt;- Activité&lt;/div&gt;&lt;/div&gt;" style="text;html=1;align=left;verticalAlign=middle;whiteSpace=wrap;rounded=0;" parent="1" vertex="1">
          <mxGeometry x="-510" y="80" width="120" height="120" as="geometry" />
        </mxCell>
        <mxCell id="jqsIoBwaRQyOEGOpOjdC-59" value="&lt;b&gt;&lt;font style=&quot;font-size: 20px;&quot;&gt;Filtres :&lt;/font&gt;&lt;/b&gt;&lt;div&gt;&lt;b&gt;&lt;br&gt;&lt;/b&gt;&lt;/div&gt;&lt;div&gt;&lt;b&gt;Générique :&amp;nbsp;&lt;/b&gt;&lt;/div&gt;&lt;div&gt;&lt;b&gt;&lt;br&gt;&lt;/b&gt;&lt;div&gt;&lt;span style=&quot;background-color: initial;&quot;&gt;- Notation&lt;/span&gt;&lt;/div&gt;&lt;div&gt;&lt;span style=&quot;background-color: initial;&quot;&gt;- Lieux&amp;nbsp;&lt;/span&gt;&lt;/div&gt;&lt;div&gt;&lt;br&gt;&lt;/div&gt;&lt;div&gt;&lt;b&gt;Hôtels :&lt;/b&gt;&lt;br&gt;&lt;/div&gt;&lt;/div&gt;&lt;div&gt;&lt;b&gt;&lt;br&gt;&lt;/b&gt;&lt;/div&gt;&lt;div&gt;- nombre d&#39;étoiles&lt;/div&gt;&lt;div&gt;&lt;br&gt;&lt;/div&gt;&lt;div&gt;&lt;b&gt;Restaurants :&lt;/b&gt;&lt;br&gt;&lt;/div&gt;&lt;div&gt;&lt;br&gt;&lt;/div&gt;&lt;div&gt;- type de cuisine&lt;/div&gt;&lt;div&gt;&lt;br&gt;&lt;/div&gt;&lt;div&gt;&lt;b&gt;Activité&amp;nbsp; :&lt;/b&gt;&lt;br&gt;&lt;/div&gt;&lt;div&gt;&lt;b&gt;&lt;br&gt;&lt;/b&gt;&lt;/div&gt;&lt;div&gt;- type d&#39;activité&lt;/div&gt;" style="text;html=1;align=left;verticalAlign=top;whiteSpace=wrap;rounded=0;" parent="1" vertex="1">
          <mxGeometry x="-690" y="80" width="120" height="340" as="geometry" />
        </mxCell>
        <mxCell id="J3gAGZSWbf4-d91PH42h-1" value="&lt;b&gt;&lt;font style=&quot;font-size: 20px;&quot;&gt;*propriété nécessaires pour affichage cards lieu:&lt;/font&gt;&lt;/b&gt;&lt;div&gt;&lt;b&gt;&lt;br&gt;&lt;/b&gt;&lt;div&gt;&lt;span style=&quot;background-color: initial;&quot;&gt;- ID : iD&lt;/span&gt;&lt;/div&gt;&lt;div&gt;&lt;span style=&quot;background-color: initial;&quot;&gt;- Nom : string&lt;/span&gt;&lt;/div&gt;&lt;div&gt;&lt;span style=&quot;background-color: initial;&quot;&gt;- Ville : string&lt;/span&gt;&lt;br&gt;&lt;/div&gt;&lt;div&gt;&lt;span style=&quot;background-color: initial;&quot;&gt;- photo:url&lt;/span&gt;&lt;/div&gt;&lt;div&gt;&lt;span style=&quot;background-color: initial;&quot;&gt;- notation : number&lt;/span&gt;&lt;/div&gt;&lt;div&gt;&lt;span style=&quot;background-color: initial;&quot;&gt;- nombre de personnes ayant noté : number&lt;/span&gt;&lt;/div&gt;&lt;div&gt;- Type activités :Array&amp;lt;Object&amp;gt;&lt;/div&gt;&lt;div&gt;- Durée de visite/Catégorie Hôtel/Fourchette de prix : String| number&lt;/div&gt;&lt;/div&gt;&lt;div&gt;- Dernier commentaires Object&lt;/div&gt;" style="text;html=1;align=left;verticalAlign=top;whiteSpace=wrap;rounded=0;fillColor=#f0a30a;fontColor=#000000;strokeColor=#BD7000;" parent="1" vertex="1">
          <mxGeometry x="370" y="385" width="300" height="225" as="geometry" />
        </mxCell>
        <mxCell id="tws-aRyEBau8SEogngRB-1" value="Header" style="rounded=0;whiteSpace=wrap;html=1;fillColor=#60a917;fontColor=#ffffff;strokeColor=#2D7600;" vertex="1" parent="1">
          <mxGeometry x="-365" y="510" width="120" height="40" as="geometry" />
        </mxCell>
        <mxCell id="tws-aRyEBau8SEogngRB-2" value="Filter(diffère selon catégorie)" style="rounded=0;whiteSpace=wrap;html=1;fillColor=#60a917;fontColor=#ffffff;strokeColor=#2D7600;" vertex="1" parent="1">
          <mxGeometry x="-365" y="560" width="120" height="40" as="geometry" />
        </mxCell>
        <mxCell id="tws-aRyEBau8SEogngRB-3" value="Cards Search" style="rounded=0;whiteSpace=wrap;html=1;fillColor=#60a917;fontColor=#ffffff;strokeColor=#2D7600;" vertex="1" parent="1">
          <mxGeometry x="-365" y="610" width="120" height="40" as="geometry" />
        </mxCell>
        <mxCell id="tws-aRyEBau8SEogngRB-4" value="Pagination" style="rounded=0;whiteSpace=wrap;html=1;fillColor=#60a917;fontColor=#ffffff;strokeColor=#2D7600;" vertex="1" parent="1">
          <mxGeometry x="-365" y="660" width="120" height="40" as="geometry" />
        </mxCell>
        <mxCell id="tws-aRyEBau8SEogngRB-5" value="Footer" style="rounded=0;whiteSpace=wrap;html=1;fillColor=#60a917;fontColor=#ffffff;strokeColor=#2D7600;" vertex="1" parent="1">
          <mxGeometry x="-365" y="710" width="120" height="40" as="geometry" />
        </mxCell>
        <mxCell id="tws-aRyEBau8SEogngRB-8" value="Custom Hook" style="rounded=0;whiteSpace=wrap;html=1;" vertex="1" parent="1">
          <mxGeometry x="-110" y="510" width="100" height="20" as="geometry" />
        </mxCell>
        <mxCell id="tws-aRyEBau8SEogngRB-9" value="useState Data" style="rounded=0;whiteSpace=wrap;html=1;" vertex="1" parent="1">
          <mxGeometry x="-110" y="537.5" width="100" height="20" as="geometry" />
        </mxCell>
        <mxCell id="tws-aRyEBau8SEogngRB-10" value="useState Page" style="rounded=0;whiteSpace=wrap;html=1;" vertex="1" parent="1">
          <mxGeometry x="-110" y="565" width="100" height="20" as="geometry" />
        </mxCell>
        <mxCell id="tws-aRyEBau8SEogngRB-12" style="edgeStyle=orthogonalEdgeStyle;rounded=0;orthogonalLoop=1;jettySize=auto;html=1;entryX=0.619;entryY=1.067;entryDx=0;entryDy=0;entryPerimeter=0;" edge="1" parent="1" source="jqsIoBwaRQyOEGOpOjdC-15" target="jqsIoBwaRQyOEGOpOjdC-3">
          <mxGeometry relative="1" as="geometry" />
        </mxCell>
        <mxCell id="tws-aRyEBau8SEogngRB-13" value="call API quand page 3 pour récupérer les 21 suivants" style="rounded=0;whiteSpace=wrap;html=1;" vertex="1" parent="1">
          <mxGeometry x="15" y="575" width="120" height="60" as="geometry" />
        </mxCell>
      </root>
    </mxGraphModel>
  </diagram>
</mxfile>
